# Blender 4.2.3 LTS
# www.blender.org
mtllib tire.mtl
o _0_0_node
v 1.320000 -0.000083 -0.000424
v 1.000000 1.109520 -1.109680
v 1.000000 1.569240 -0.000424
v 1.000000 -1.570070 -0.000424
v 1.000000 -1.109680 -1.109680
v -1.320000 -0.000083 -0.000424
v -1.000000 1.109520 1.109490
v -1.000000 1.569240 -0.000424
v -1.000000 -1.570070 -0.000424
v -1.000000 -1.109680 1.109490
v -1.000000 1.109520 -1.109680
v -1.000000 1.569240 -0.000424
v 1.000000 1.109520 -1.109680
v 1.000000 1.569240 -0.000424
v -1.000000 1.569240 -0.000424
v -1.000000 1.109520 1.109490
v 1.000000 1.569240 -0.000424
v 1.000000 1.109520 1.109490
v -1.000000 -0.000083 -1.570080
v -1.000000 1.109520 -1.109680
v 1.000000 -0.000083 -1.570080
v 1.000000 1.109520 -1.109680
v -1.000000 1.109520 1.109490
v -1.000000 -0.000083 1.569230
v 1.000000 1.109520 1.109490
v 1.000000 -0.000083 1.569230
v -1.000000 -1.109680 -1.109680
v -1.000000 -0.000083 -1.570080
v 1.000000 -1.109680 -1.109680
v 1.000000 -0.000083 -1.570080
v -1.000000 -0.000083 1.569230
v -1.000000 -1.109680 1.109490
v 1.000000 -0.000083 1.569230
v 1.000000 -1.109680 1.109490
v -1.000000 -1.570070 -0.000424
v -1.000000 -1.109680 -1.109680
v 1.000000 -1.570070 -0.000424
v 1.000000 -1.109680 -1.109680
v -1.000000 -1.109680 1.109490
v -1.000000 -1.570070 -0.000424
v 1.000000 -1.109680 1.109490
v 1.000000 -1.570070 -0.000424
v 1.000000 1.109520 1.109490
v 1.000000 -1.109680 1.109490
v 1.000000 -0.000083 -1.570080
v 1.000000 -0.000083 1.569230
v -1.000000 1.109520 -1.109680
v -1.000000 -1.109680 -1.109680
v -1.000000 -0.000083 1.569230
v -1.000000 -0.000083 -1.570080
vn 1.0000 -0.0000 -0.0000
vn 0.6561 0.5337 -0.5336
vn 0.6562 0.7546 -0.0001
vn 0.6561 0.5337 0.5335
vn 0.6562 -0.0000 0.7546
vn 0.6561 -0.5335 0.5338
vn 0.6562 -0.7545 -0.0000
vn 0.6560 -0.5337 -0.5337
vn 0.6562 -0.0001 -0.7545
vn -1.0000 -0.0000 -0.0000
vn -0.6561 0.5336 0.5336
vn -0.6562 0.7546 -0.0000
vn -0.6561 0.5338 -0.5335
vn -0.6562 -0.0000 -0.7545
vn -0.6560 -0.5336 -0.5337
vn -0.6562 -0.7545 -0.0001
vn -0.6561 -0.5336 0.5337
vn -0.6562 -0.0001 0.7546
vn -0.6561 0.5337 -0.5335
vn -0.6562 0.7546 -0.0001
vn 0.6561 0.5337 -0.5335
vn 0.6562 0.7546 -0.0000
vn -0.6562 0.7546 -0.0002
vn -0.6562 0.5336 0.5336
vn 0.6562 0.7545 -0.0001
vn 0.6562 0.5336 0.5336
vn -0.6563 -0.0001 -0.7545
vn 0.6563 -0.0000 -0.7545
vn -0.6562 0.5336 0.5335
vn -0.6562 -0.0000 0.7545
vn 0.6562 0.5336 0.5335
vn 0.6562 -0.0001 0.7546
vn -0.6561 -0.5336 -0.5336
vn -0.6563 -0.0000 -0.7545
vn 0.6561 -0.5336 -0.5337
vn 0.6563 0.0001 -0.7545
vn -0.6562 0.0001 0.7546
vn -0.6562 -0.5335 0.5337
vn 0.6562 -0.0000 0.7545
vn 0.6561 -0.5335 0.5337
vn -0.6563 -0.7545 -0.0001
vn -0.6561 -0.5336 -0.5337
vn 0.6563 -0.7545 -0.0001
vn -0.6561 -0.5335 0.5338
vn 0.6562 -0.5335 0.5337
vt 0.250000 0.500000
vt 0.426777 0.853553
vt 0.250000 1.000000
vt 0.073223 0.853553
vt 0.000000 0.500000
vt 0.073223 0.146446
vt 0.250000 0.000000
vt 0.426777 0.146447
vt 0.500000 0.500000
vt 0.500000 1.000000
vt 0.500000 0.000000
vt 1.000000 1.000000
vt 1.000000 0.000000
s 1
usemtl mat_tire_std_mat
f 1/1/1 2/2/2 3/3/3
f 43/4/4 1/1/1 3/3/3
f 46/5/5 1/1/1 43/4/4
f 44/6/6 1/1/1 46/5/5
f 44/6/6 4/7/7 1/1/1
f 1/1/1 4/7/7 5/8/8
f 1/1/1 5/8/8 45/9/9
f 1/1/1 45/9/9 2/2/2
f 6/1/10 7/2/11 8/3/12
f 6/1/10 8/3/12 47/4/13
f 6/1/10 47/4/13 50/5/14
f 48/6/15 6/1/10 50/5/14
f 48/6/15 9/7/16 6/1/10
f 6/1/10 9/7/16 10/8/17
f 6/1/10 10/8/17 49/9/18
f 49/9/18 7/2/11 6/1/10
f 11/10/19 12/11/20 13/12/21
f 12/11/20 14/13/22 13/12/21
f 15/10/23 16/11/24 17/12/25
f 16/11/24 18/13/26 17/12/25
f 19/10/27 20/11/19 21/12/28
f 20/11/19 22/13/21 21/12/28
f 23/10/29 24/11/30 25/12/31
f 24/11/30 26/13/32 25/12/31
f 27/10/33 28/11/34 29/12/35
f 28/11/34 30/13/36 29/12/35
f 31/10/37 32/11/38 33/12/39
f 32/11/38 34/13/40 33/12/39
f 35/10/41 36/11/42 37/12/43
f 36/11/42 38/13/35 37/12/43
f 39/10/44 40/11/41 41/12/45
f 40/11/41 42/13/43 41/12/45
